<?xml version="1.0"?>
<svg xmlns="http://www.w3.org/2000/svg" version="1.1" width="600px" height="600px" viewBox="0 0 200 200" style="overflow:hidden!important;">
  <defs id="SvgjsDefs6239">
    <radialGradient id="SvgjsRadialGradient6305" cx="100" cy="114" r="41" gradientUnits="userSpaceOnUse" class="svga-on-canvas-facehighlight-gradient-single-0">
      <stop id="SvgjsStop6306" stop-opacity="0.5" stop-color="#ffc9b5" offset="0"/>
      <stop id="SvgjsStop6307" stop-opacity="0" stop-color="#f5af95" offset="0.9"/>
    </radialGradient>
    <radialGradient id="SvgjsRadialGradient6309" cx="100" cy="54" r="37" gradientUnits="userSpaceOnUse" class="svga-on-canvas-facehighlight-gradient-single-1">
      <stop id="SvgjsStop6310" stop-opacity="0.5" stop-color="#ffc9b5" offset="0"/>
      <stop id="SvgjsStop6311" stop-opacity="0" stop-color="#f5af95" offset="0.9"/>
    </radialGradient>
    <radialGradient id="SvgjsRadialGradient6394" cx="-568.659" cy="-521.042" r="59.751" gradientTransform="matrix(0.096 -0.0248 0.0245 0.0961 141.2814 119.9893)" gradientUnits="userSpaceOnUse" class="svga-on-canvas-eyesiris-gradient-left-1">
      <stop id="SvgjsStop6395" stop-opacity="1" stop-color="#ffffff" offset="0"/>
      <stop id="SvgjsStop6396" stop-opacity="0" stop-color="#ffffff" offset="1"/>
    </radialGradient>
    <radialGradient id="SvgjsRadialGradient6398" cx="-582.838" cy="-519.099" r="59.745" gradientTransform="matrix(0.0991 8.856319e-004 -0.0011 0.0991 131.1134 135.9855)" gradientUnits="userSpaceOnUse" class="svga-on-canvas-eyesiris-gradient-left-2">
      <stop id="SvgjsStop6399" stop-opacity="1" stop-color="#ffffff" offset="0"/>
      <stop id="SvgjsStop6400" stop-opacity="0" stop-color="#ffffff" offset="1"/>
    </radialGradient>
    <linearGradient id="SvgjsLinearGradient6404" x1="122.67" y1="88.268" x2="123.606" y2="87.152" gradientTransform="matrix(1 0 0 1 -52 0)" gradientUnits="userSpaceOnUse" class="svga-on-canvas-eyesiris-gradient-left-5">
      <stop id="SvgjsStop6405" stop-opacity="1" stop-color="#ffffff" offset="0"/>
      <stop id="SvgjsStop6406" stop-opacity="0" stop-color="#ffffff" offset="1"/>
    </linearGradient>
    <linearGradient id="SvgjsLinearGradient6408" x1="127.212" y1="82.296" x2="126.463" y2="83.189" gradientTransform="matrix(1 0 0 1 -52 0)" gradientUnits="userSpaceOnUse" class="svga-on-canvas-eyesiris-gradient-left-6">
      <stop id="SvgjsStop6409" stop-opacity="1" stop-color="#ffffff" offset="0"/>
      <stop id="SvgjsStop6410" stop-opacity="0" stop-color="#ffffff" offset="1"/>
    </linearGradient>
    <linearGradient id="SvgjsLinearGradient6412" x1="129.636" y1="79.822" x2="127.91" y2="81.879" gradientTransform="matrix(1 0 0 1 -52 0)" gradientUnits="userSpaceOnUse" class="svga-on-canvas-eyesiris-gradient-left-7">
      <stop id="SvgjsStop6413" stop-opacity="1" stop-color="#ffffff" offset="0"/>
      <stop id="SvgjsStop6414" stop-opacity="0" stop-color="#ffffff" offset="1"/>
    </linearGradient>
    <radialGradient id="SvgjsRadialGradient6417" cx="-568.654" cy="-521.042" r="59.752" gradientTransform="matrix(0.096 -0.0248 0.0245 0.0961 193.2804 119.9894)" gradientUnits="userSpaceOnUse" class="svga-on-canvas-eyesiris-gradient-right-1">
      <stop id="SvgjsStop6418" stop-opacity="1" stop-color="#ffffff" offset="0"/>
      <stop id="SvgjsStop6419" stop-opacity="0" stop-color="#ffffff" offset="1"/>
    </radialGradient>
    <radialGradient id="SvgjsRadialGradient6421" cx="-582.833" cy="-519.102" r="59.747" gradientTransform="matrix(0.0991 8.856319e-004 -0.0011 0.0991 183.1126 135.9856)" gradientUnits="userSpaceOnUse" class="svga-on-canvas-eyesiris-gradient-right-2">
      <stop id="SvgjsStop6422" stop-opacity="1" stop-color="#ffffff" offset="0"/>
      <stop id="SvgjsStop6423" stop-opacity="0" stop-color="#ffffff" offset="1"/>
    </radialGradient>
    <linearGradient id="SvgjsLinearGradient6427" x1="122.67" y1="88.268" x2="123.606" y2="87.152" gradientUnits="userSpaceOnUse" class="svga-on-canvas-eyesiris-gradient-right-5">
      <stop id="SvgjsStop6428" stop-opacity="1" stop-color="#ffffff" offset="0"/>
      <stop id="SvgjsStop6429" stop-opacity="0" stop-color="#ffffff" offset="1"/>
    </linearGradient>
    <linearGradient id="SvgjsLinearGradient6431" x1="127.212" y1="82.296" x2="126.463" y2="83.189" gradientUnits="userSpaceOnUse" class="svga-on-canvas-eyesiris-gradient-right-6">
      <stop id="SvgjsStop6432" stop-opacity="1" stop-color="#ffffff" offset="0"/>
      <stop id="SvgjsStop6433" stop-opacity="0" stop-color="#ffffff" offset="1"/>
    </linearGradient>
    <linearGradient id="SvgjsLinearGradient6435" x1="129.636" y1="79.822" x2="127.91" y2="81.879" gradientUnits="userSpaceOnUse" class="svga-on-canvas-eyesiris-gradient-right-7">
      <stop id="SvgjsStop6436" stop-opacity="1" stop-color="#ffffff" offset="0"/>
      <stop id="SvgjsStop6437" stop-opacity="0" stop-color="#ffffff" offset="1"/>
    </linearGradient>
    <radialGradient id="SvgjsRadialGradient6495" cx="125.379" cy="82.93" r="12.84" gradientTransform="matrix(-1.0592 4.000000e-004 -4.000000e-004 0.9318 206.5112 5.1767)" gradientUnits="userSpaceOnUse" class="svga-on-canvas-eyesback-gradient-left-0">
      <stop id="SvgjsStop6496" stop-opacity="1" stop-color="#ffffff" offset="0"/>
      <stop id="SvgjsStop6497" stop-opacity="1" stop-color="#fdfefe" offset="0.544"/>
      <stop id="SvgjsStop6498" stop-opacity="1" stop-color="#f6f8f9" offset="0.74"/>
      <stop id="SvgjsStop6499" stop-opacity="1" stop-color="#eaeff2" offset="0.879"/>
      <stop id="SvgjsStop6500" stop-opacity="1" stop-color="#d9e3e8" offset="0.992"/>
      <stop id="SvgjsStop6501" stop-opacity="1" stop-color="#d8e2e7" offset="1"/>
    </radialGradient>
    <radialGradient id="SvgjsRadialGradient6503" cx="125.001" cy="82.93" r="12.841" gradientTransform="matrix(1.0592 4.000000e-004 4.000000e-004 0.9318 -6.5112 5.1767)" gradientUnits="userSpaceOnUse" class="svga-on-canvas-eyesback-gradient-right-0">
      <stop id="SvgjsStop6504" stop-opacity="1" stop-color="#ffffff" offset="0"/>
      <stop id="SvgjsStop6505" stop-opacity="1" stop-color="#fdfefe" offset="0.544"/>
      <stop id="SvgjsStop6506" stop-opacity="1" stop-color="#f6f8f9" offset="0.74"/>
      <stop id="SvgjsStop6507" stop-opacity="1" stop-color="#eaeff2" offset="0.879"/>
      <stop id="SvgjsStop6508" stop-opacity="1" stop-color="#d9e3e8" offset="0.992"/>
      <stop id="SvgjsStop6509" stop-opacity="1" stop-color="#d8e2e7" offset="1"/>
    </radialGradient>
    <radialGradient id="SvgjsRadialGradient6511" cx="125.379" cy="82.93" r="12.84" gradientTransform="matrix(-1.0592 4.000000e-004 -4.000000e-004 0.9318 206.5112 5.1767)" gradientUnits="userSpaceOnUse" class="svga-on-canvas-eyesfront-gradient-left-0">
      <stop id="SvgjsStop6512" stop-opacity="1" stop-color="#ffffff" offset="0"/>
      <stop id="SvgjsStop6513" stop-opacity="1" stop-color="#fdfefe" offset="0.544"/>
      <stop id="SvgjsStop6514" stop-opacity="1" stop-color="#f6f8f9" offset="0.74"/>
      <stop id="SvgjsStop6515" stop-opacity="1" stop-color="#eaeff2" offset="0.879"/>
      <stop id="SvgjsStop6516" stop-opacity="1" stop-color="#d9e3e8" offset="0.992"/>
      <stop id="SvgjsStop6517" stop-opacity="1" stop-color="#d8e2e7" offset="1"/>
    </radialGradient>
    <radialGradient id="SvgjsRadialGradient6521" cx="123.218" cy="81.096" fx="133.802" fy="77.197" r="17.898" gradientTransform="matrix(0.9998 0.0183 0.0166 -0.7038 -47.7588 136.6255)" gradientUnits="userSpaceOnUse" class="svga-on-canvas-eyesfront-gradient-left-3">
      <stop id="SvgjsStop6522" stop-opacity="1" stop-color="#e69375" offset="0"/>
      <stop id="SvgjsStop6523" stop-opacity="0.3" stop-color="#e69375" offset="0.7"/>
      <stop id="SvgjsStop6524" stop-opacity="0" stop-color="#f5af95" offset="1"/>
    </radialGradient>
    <radialGradient id="SvgjsRadialGradient6526" cx="79.496" cy="81.496" r="23.208" gradientTransform="matrix(1.0971 -0.0499 0.0576 0.9543 -20.1632 27.912)" gradientUnits="userSpaceOnUse" class="svga-on-canvas-eyesfront-gradient-left-4">
      <stop id="SvgjsStop6527" stop-opacity="0" stop-color="#000000" offset="0.9"/>
      <stop id="SvgjsStop6528" stop-opacity="0.2" stop-color="#000000" offset="1"/>
    </radialGradient>
    <radialGradient id="SvgjsRadialGradient6532" cx="125.001" cy="82.93" r="12.841" gradientTransform="matrix(1.0592 4.000000e-004 4.000000e-004 0.9318 -6.5112 5.1767)" gradientUnits="userSpaceOnUse" class="svga-on-canvas-eyesfront-gradient-right-0">
      <stop id="SvgjsStop6533" stop-opacity="1" stop-color="#ffffff" offset="0"/>
      <stop id="SvgjsStop6534" stop-opacity="1" stop-color="#fdfefe" offset="0.544"/>
      <stop id="SvgjsStop6535" stop-opacity="1" stop-color="#f6f8f9" offset="0.74"/>
      <stop id="SvgjsStop6536" stop-opacity="1" stop-color="#eaeff2" offset="0.879"/>
      <stop id="SvgjsStop6537" stop-opacity="1" stop-color="#d9e3e8" offset="0.992"/>
      <stop id="SvgjsStop6538" stop-opacity="1" stop-color="#d8e2e7" offset="1"/>
    </radialGradient>
    <radialGradient id="SvgjsRadialGradient6542" cx="122.818" cy="81.096" fx="133.402" fy="77.197" r="17.898" gradientTransform="matrix(-0.9998 0.0183 -0.0166 -0.7038 246.9601 136.6328)" gradientUnits="userSpaceOnUse" class="svga-on-canvas-eyesfront-gradient-right-3">
      <stop id="SvgjsStop6543" stop-opacity="1" stop-color="#e69375" offset="0"/>
      <stop id="SvgjsStop6544" stop-opacity="0.3" stop-color="#e69375" offset="0.7"/>
      <stop id="SvgjsStop6545" stop-opacity="0" stop-color="#f5af95" offset="1"/>
    </radialGradient>
    <radialGradient id="SvgjsRadialGradient6547" cx="79.859" cy="81.511" r="23.208" gradientTransform="matrix(-1.0971 -0.0499 -0.0576 0.9543 220.163 27.9157)" gradientUnits="userSpaceOnUse" class="svga-on-canvas-eyesfront-gradient-right-4">
      <stop id="SvgjsStop6548" stop-opacity="0" stop-color="#000000" offset="0.9"/>
      <stop id="SvgjsStop6549" stop-opacity="0.2" stop-color="#000000" offset="1"/>
    </radialGradient>
    <linearGradient id="SvgjsLinearGradient6596" x1="100" y1="172" x2="100" y2="122" gradientUnits="userSpaceOnUse" class="svga-on-canvas-chinshadow-gradient-single-0">
      <stop id="SvgjsStop6597" stop-opacity="0.8" stop-color="#e69375" offset="0"/>
      <stop id="SvgjsStop6598" stop-opacity="1" stop-color="#c7633d" offset="0.7"/>
    </linearGradient>
    <radialGradient id="SvgjsRadialGradient6638" cx="100" cy="225" r="250" gradientUnits="userSpaceOnUse" class="svga-on-canvas-backs-gradient-single-1">
      <stop id="SvgjsStop6639" stop-opacity="0" stop-color="#cdb380" offset="0"/>
      <stop id="SvgjsStop6640" stop-opacity="1" stop-color="#be9f63" offset="1"/>
    </radialGradient>
    <linearGradient id="SvgjsLinearGradient6642" x1="100" y1="144" x2="100" y2="141" gradientUnits="userSpaceOnUse" class="svga-on-canvas-mouth-gradient-single-0">
      <stop id="SvgjsStop6643" stop-opacity="1" stop-color="#eda184" offset="0.1"/>
      <stop id="SvgjsStop6644" stop-opacity="1" stop-color="#e69375" offset="1"/>
    </linearGradient>
  </defs>
  <g id="svga-group-wrapper">
    <g id="svga-group-backs-single">
      <path id="SvgjsPath6636" d="M225 225H-25V-25h250V225z" fill="#cdb380" stroke-width="none" opacity="1"/>
      <path id="SvgjsPath6637" d="M99.093,225h-0.221L-25-23.26V-25H1.992L99.093,225z M58.936-25H34.616l64.735,250h0.193L58.936-25z M-25,146.607v15.437L96.026,225h0.738L-25,146.607z M112.078-25H88.791l10.991,250h0.185L112.078-25z M-25,103.112v21.017L97.442,225h0.412L-25,103.112z M92.652,225H94.6L-25,179.631v12.78L92.652,225z M-25,36.37v33.745L98.278,225h0.281L-25,36.37z M225,162.044v-15.437L103.236,225h0.737L225,162.044z M225,192.411v-12.78L105.4,225h1.947L225,192.411z M225,124.128v-21.016L102.146,225h0.412L225,124.128z M165.383-25h-24.318l-40.609,250h0.193L165.383-25z M225,70.114V36.37L101.44,225h0.281L225,70.114z M225-23.261V-25h-26.992l-97.101,250h0.221L225-23.261z" fill="url(#SvgjsRadialGradient6638)" opacity="1"/>
    </g>
    <g id="svga-group-humanwrap-move" transform="matrix(1,0,0,1,0,0)">
      <g id="svga-group-humanwrap" transform="matrix(1,0,0,1,0,0)">
        <g id="svga-group-hair-back-move" transform="matrix(1,0,0,1,0,0)">
          <g id="svga-group-hair-back" transform="matrix(1,0,0,1,0,0)">
            <path id="SvgjsPath6607" d="M100.5,100.5h-1v-1h1V100.5z" fill="#b79675" stroke-width="none" opacity="1"/>
          </g>
        </g>
        <g id="svga-group-humanbody-single">
          <path id="SvgjsPath6312" d="M195.417 199.778c-2.196-4.746-8.195-11.779-14.86-13.722 -8.239-2.403-26.837-5.308-33.733-6.923 -5.528-1.296-16.662-11.294-20.564-14.65 -0.7-0.6-1.273-1.839-1.287-2.76 -0.139-10.864 4.195-39.724 4.195-39.724H100 70.833c0 0 4.334 28.859 4.193 39.724 -0.011 0.921-0.587 2.16-1.285 2.76 -3.902 3.356-15.036 13.354-20.564 14.65 -6.897 1.615-25.495 4.619-33.733 7.022 -6.667 1.942-12.664 8.876-14.86 13.622 -3.708 8.008-4.584 22.5-4.584 35h100 100C200 222.278 199.123 207.786 195.417 199.778z" fill="#f5af95" stroke-width="none" opacity="1" stroke="none"/>
          <path id="SvgjsPath6313" d="M159.156 184.058c24.342 3.542 34.586 8.708 37.794 50.721H200c0-12.5-0.877-26.992-4.583-35 -2.196-4.746-8.195-11.779-14.86-13.722 -8.239-2.403-26.837-5.308-33.733-6.923 -5.528-1.296-18.242-12.069-21.643-16.35 3.36 4.704 12.791 15.605 21.054 18.46C150.188 182.61 153.48 183.232 159.156 184.058zM53.766 181.244c8.263-2.854 17.693-13.756 21.054-18.46 -3.4 4.28-16.114 15.054-21.643 16.35 -6.896 1.615-25.494 4.619-33.733 7.022 -6.665 1.942-12.664 8.876-14.86 13.622 -3.706 8.008-4.583 22.5-4.583 35h3.05c3.188-41.744 13.475-47.183 37.794-50.721C46.52 183.232 49.813 182.61 53.766 181.244z" fill="#ffc9b5" stroke-width="none" opacity="1" stroke="none"/>
          <path id="SvgjsPath6314" d="M95.646 197.62c0 0-5.074-1.609-7.083-2.379 -10.449-4.009-44.395-6.607-44.395-6.607s35.754 1.419 43.644 2.779c-0.458-4.767-3.017-20.004-3.017-20.004s5.149 16.815 6.409 21.057C91.878 194.734 95.646 197.62 95.646 197.62zM106.445 196.278c-0.089 0.073-0.191 0.168-0.302 0.268C106.256 196.461 106.358 196.372 106.445 196.278zM95.646 197.62c0 0 2.893 2.992 4.347 3.03 1.91 0.051 4.828-2.899 6.151-4.104 -1.265 0.957-4.159 1.391-5.31 1.436C99.504 198.033 95.646 197.62 95.646 197.62zM116.664 190.101c-1.545 0.248-4.386 0.789-4.386 0.789l2.287-14.89c-0.646 3.071-4.474 16.211-8.12 20.278 1.91-1.616 6.158-2.391 8.324-2.704 10.236-1.484 10.232-1.483 41.062-4.94C155.831 188.634 126.76 188.479 116.664 190.101z" fill="#e69375" stroke-width="none" opacity="1" stroke="none"/>
          <path id="SvgjsPath6315" d="M195.417 199.778c-2.196-4.746-8.195-11.779-14.86-13.722 -8.239-2.403-26.837-5.308-33.733-6.923 -5.528-1.296-16.662-11.294-20.564-14.65 -0.7-0.6-1.273-1.839-1.287-2.76 -0.139-10.864 4.195-39.724 4.195-39.724H100 70.833c0 0 4.334 28.859 4.193 39.724 -0.011 0.921-0.587 2.16-1.285 2.76 -3.902 3.356-15.036 13.354-20.564 14.65 -6.897 1.615-25.495 4.619-33.733 7.022 -6.667 1.942-12.664 8.876-14.86 13.622 -3.708 8.008-4.584 22.5-4.584 35h100 100C200 222.278 199.123 207.786 195.417 199.778z" fill="none" stroke="#c7633d" stroke-width="1.5" opacity="1"/>
        </g>
        <g id="svga-group-chinshadow-single">
          <path id="SvgjsPath6595" d="M75.517 163.052c6.979 4.54 16.307 8.814 24.485 8.814 7.828 0 17.345-4.309 24.458-8.869 -0.145-0.428-0.233-0.862-0.239-1.264 -0.126-9.877 3.345-34.021 4.076-38.983H71.703c0.73 4.963 4.202 29.106 4.074 38.982C75.772 162.146 75.676 162.603 75.517 163.052z" fill="url(#SvgjsLinearGradient6596)" opacity="1"/>
        </g>
        <g id="svga-group-clothes-single">
          <path id="SvgjsPath6614" d="M-4.807 234.6c1.472-10.806-0.208-11.777 4.116-33.015 1.228-7.384 2.66-13.32 8.141-10.607 4.045-6.008 15.513-6.566 57.339-20.658v-0.258c0.278-1.001 2.706-4.267 3.099-9.897 0.383-5.449 2.718-9.56 5.614-11.604 -6.746 23.685 23.144 14.953 24.208 31.108 0.084 1.273-0.974 10.149-0.813 10.969 3.355-0.679 6.721-0.684 10.359-0.645 -3.928-15.24-0.545-16.872 7.344-19.838 9.564-3.591 12.873-7.169 12.01-20.697 4.57 4.109 1.516 9.7 7.174 17.534 36.249 13.159 50.02 16.863 56.963 21.507 5.981-4.517 9.697 2.65 17.292 46.103C136.218 235.212 54.269 235.12-4.807 234.6z" fill="#4b2824" stroke-width="none" opacity="1"/>
          <path id="SvgjsPath6615" d="M92.119 197.235c0.304-0.029 3.375-5.505 3.375-5.505 5.764-2.145 18.375 2.005 34.019-10.176C117.994 199.61 97.143 186.737 92.119 197.235zM70.115 179.378c8.754 10.018 23.629 13.732 26.773 10.686C96.885 190.135 79.619 189.396 70.115 179.378z" fill="#3c1a17" stroke-width="none" opacity="1"/>
          <path id="SvgjsPath6616" d="M73.607 149.423c0 0 0.705 6.944 0.82 11.739C72.326 156.482 71.897 155.232 73.607 149.423z" fill="#2c100c" stroke-width="none" opacity="1"/>
          <path id="SvgjsPath6617" d="M4.781 194.15C0 207.902-0.398 222.744-3.298 234.612c-0.693-0.006-0.823 0.293-1.509 0.287 1.472-10.806-0.208-12.355 4.116-33.593 1.228-7.384 2.66-13.32 8.141-10.607 4.045-6.008 15.513-6.566 57.339-20.658v-0.258c0.278-1.001 2.706-4.267 3.099-9.897 0.345-4.904 2.622-9.431 5.25-11.325 -5.936 6.453-1.918 18.345-8.092 22.976C53.103 178.967 18.588 187.846 4.781 194.15zM190.747 188.499c-6.943-4.644-20.714-8.348-56.963-21.507 -5.658-7.834-2.604-13.425-7.174-17.534 0.063 1.001-0.018 0.613 0 1.51 2.161-0.43 2.695 15.819 7.443 18.193 19 9 45.261 17.317 59.521 22.632 6.636 10.021 8.157 26.964 13.401 42.817 1.067-0.009 0 0 1.063-0.009C200.444 191.149 196.729 183.982 190.747 188.499zM125.992 162.465c-7.33 12.798-21.646 4.662-20.242 19.81C108.488 167.635 121.171 175.921 125.992 162.465zM97.372 184.295c2.628-16.491-15.517-13.785-23.633-23.296C78.812 171.409 95.553 168.227 97.372 184.295z" fill="#5a3834" stroke-width="none" opacity="1"/>
          <path id="SvgjsPath6618" d="M196.139 187.915c-1.581-1.609-3.779-1.259-5.409-0.029 -7.133-4.756-26.235-9.496-56.63-21.609 0 0-2.289-2.963-3.469-8.017 -0.783-3.353-0.308-7.087-4.192-9.838 -0.749 9.286-0.411 16.736-9.51 20.304 -8.959 3.582-14.71 3.744-10.319 20.76 -2.301-0.026-6.457-0.018-9.318 0.563 -0.058-0.295 1.027-8.769 0.918-10.412 -1.014-15.376-28.515-9.625-24.93-27.551 0.33-1.649 0.454-2.542 0.187-3.81 -3.67 1.92-5.337 6.074-5.847 9.51 -0.556 3.889 0.319 4.852-3.32 12.13 0 0.011-0.01 0.021-0.01 0.03 -0.17 0.05-0.35 0.11-0.53 0.17 -41.434 13.791-52.827 14.785-56.48 20.22 -5.931-2.941-7.458 5.121-8.46 11.15 -4.398 21.597-2.602 22.344-4.2 33.61 1 0 109.661 0.96 212.96 0.01 0.36 0 0.71-0.01 1.06-0.01C208.319 233.75 202.222 193.853 196.139 187.915zM117.52 170.155c9.877-4.015 9.506-9.654 9.367-19.766 3.437 1.52 0.914 8.914 6.792 16.516 0 4.854-1.267 9.955-4.229 13.46 -5.51 6.101-14.719 9.317-22.23 9.13C104.685 173.337 107.914 174.091 117.52 170.155zM68.349 159.005c0.062-2.714 2.16-8.263 4.9-10.1 -8.723 23.076 22.427 15.489 23.73 31.92 0.027 0.457-0.38 8.333-0.39 8.84 -16.104-1.896-23.674-5.555-31.64-19.189 0.02-0.04 0.04-0.08 0.06-0.12 0.01 0.01 0.01 0 0.01 0C67.547 165.299 68.017 164.151 68.349 159.005zM-4.591 234.455c1.436-5.179 1.375-14.908 4.04-28.63 1.58-7.847 1.629-17.345 7.48-15.03 0.02 0 0.03 0.011 0.04 0.011 3.516 8.49 11.016 31.499 11.33 32.5 0.155 0.456 2.074 8.248 2.56 9.89 -2.124-16.99-11.493-39.731-12.99-42.14 4.051-4.15 3.094-2.325 35.92-12.7 7.099-2.245 19.409-7.106 20.27-7.601 9.185 19.855 28.548 19.105 32.33 19.521 -11.02 3.397-4.729 31.249-3.77 40.96 -0.163-7.896-3.465-29.31 1.25-36.84 0 0 0.648-1.301 3.14-2.38 6.946-2.627 15.325 2.951 29.95-7.34 4.758-4.518 7.13-7.39 7.13-17.53 24.029 11.337 46.962 16.747 56.11 21.7 -0.013 0.081-0.05 0.414-0.05 0.42 -1.544 13.248 1.243-1.169-4.4 28.689 -1.47 8.541-0.406 5.667-1.13 13.28 1.481-7.851-0.067-3.756 2.12-13.12 4.586-19.338 3.858-22.946 4.16-29.39 3.326-2.396 5.107 0.213 6.399 3.96 4.836 14.695 7.982 34.133 10.09 41.76C141.558 233.843 61.242 233.874-4.591 234.455zM107.847 202.681c-3.239 1.259-7.306 0.944-10.905 0.433C103.167 202.238 107.208 202.645 107.847 202.681z" fill="#1d0805" stroke-width="none" opacity="1"/>
        </g>
        <g id="svga-group-head" transform="matrix(1,0,0,1,0,0)">
          <g id="svga-group-ears-left-move" transform="matrix(1,0,0,1,0,0)">
            <g id="svga-group-ears-left" transform="matrix(1,0,0,1,0,0)">
              <path id="SvgjsPath6575" d="M45.443 82.722c-1.469-2.433-6.648-7.545-10.31-6.61 -2.979 0.762-6.032 3.243-6.032 7.473 -0.001 6.553 1.496 9.338 2.501 12.311 0.856 2.53 3.915 7.167 5.761 8.964 2.273 2.208 5.957 9.35 6.404 10.079 0.705 1.154 1.877 2.988 4.043 3.057 3.29 0.104 7.085-2.105 7.323-3.488C56.42 107.009 49.263 89.052 45.443 82.722z" fill="#f5af95" stroke="#c7633d" stroke-width="1.5" opacity="1"/>
              <path id="SvgjsPath6576" d="M43.596 99.086c-0.142-0.558 0.007-1.495 0.152-2.4 0.131-0.826 0.255-1.605 0.18-2.157 -0.285-2.064-1.892-5.988-2.942-8.115 -1.208-2.446-4.117-5.528-6.568-6.322 -1.013-0.329-1.681 0.064-2.067 0.463 -0.284 0.293-0.347 0.637-0.254 0.678 0.093 0.041 0.304-0.244 0.61-0.513 0.25-0.22 0.617-0.408 1.122-0.369 -0.203 1.028-3.138 4.222-1.381 10.392 0.822 2.888 1.992 5.214 2.202 5.549 0.032 0.352 0.083 0.696 0.159 1.031 0.991 4.357 7.286 11.54 8.785 13.162 0.277 0.3 0.567 0.477 0.639 0.406 0.072-0.072-0.1-0.368-0.376-0.671 -1.48-1.611-7.734-8.777-8.69-12.981 -1.754-7.702 1.916-7.832 4.499-12.473 0.397 0.657 0.733 1.288 0.993 1.814 0.203 0.413 0.429 0.896 0.661 1.417 -0.458 0.729-5.059 6.055-3.889 10.317 0.433 1.572 3.779 3.598 5.073 4.153 0.712 0.306 0.979 0.763 1.289 1.291 0.359 0.613 0.767 2.796 1.95 3.298 0.241 0.103 0.458 0.146 0.651 0.146 0.334 0 0.587-0.128 0.774-0.28 0.019 0.267 0.018 0.612 0.008 0.93 -0.011 0.411 0.046 0.748 0.147 0.756s0.208-0.317 0.221-0.727c0.016-0.504 0.014-1.128-0.077-1.426 -0.265-0.88-1.076-1.871-1.934-2.921C44.688 102.503 43.815 99.947 43.596 99.086zM34.616 95.223c-2.322-6.84 0.993-12.744 1.514-13.684 0.908 0.787 2.662 1.841 3.314 2.87C36.33 89.804 34.811 86.051 34.616 95.223zM45.884 106.717c-1.072-0.455-1.431-2.555-1.778-3.147 -0.314-0.536-0.639-1.089-1.461-1.443 -0.179-0.077-0.376-0.194-0.578-0.328 -3.861-5.758 0.291-8.626 1.027-9.163 0.226 0.734 0.396 1.407 0.47 1.946 0.068 0.496-0.058 1.284-0.179 2.045 -0.15 0.944-0.306 1.92-0.145 2.553 0.24 0.941 1.14 3.529 2.01 4.594 0.772 0.945 1.564 1.919 1.835 2.713C46.97 106.645 46.604 107.022 45.884 106.717z" fill="#c7633d" stroke-width="none" opacity="1" stroke="none"/>
            </g>
          </g>
          <g id="svga-group-ears-right-move" transform="matrix(1,0,0,1,0,0)">
            <g id="svga-group-ears-right" transform="matrix(1,0,0,1,0,0)">
              <path id="SvgjsPath6577" d="M154.295 82.722c1.469-2.433 6.648-7.545 10.311-6.61 2.979 0.762 6.031 3.243 6.031 7.473 0.002 6.553-1.496 9.338-2.5 12.311 -0.857 2.53-3.916 7.167-5.762 8.964 -2.273 2.208-5.957 9.35-6.404 10.079 -0.705 1.154-1.877 2.988-4.043 3.057 -3.291 0.104-7.086-2.105-7.324-3.488C143.318 107.009 150.475 89.052 154.295 82.722z" fill="#f5af95" stroke="#c7633d" stroke-width="1.5" opacity="1"/>
              <path id="SvgjsPath6578" d="M154.205 103.536c-0.857 1.05-1.668 2.041-1.934 2.921 -0.09 0.298-0.092 0.922-0.076 1.426 0.014 0.409 0.119 0.734 0.221 0.727s0.158-0.345 0.146-0.756c-0.01-0.317-0.01-0.663 0.01-0.93 0.186 0.152 0.439 0.28 0.773 0.28 0.193 0 0.41-0.043 0.65-0.146 1.184-0.502 1.592-2.686 1.951-3.298 0.311-0.528 0.576-0.985 1.289-1.291 1.293-0.555 4.639-2.581 5.072-4.153 1.17-4.262-3.432-9.588-3.889-10.317 0.232-0.522 0.457-1.004 0.66-1.417 0.26-0.526 0.596-1.157 0.994-1.814 2.582 4.641 6.252 4.771 4.498 12.473 -0.957 4.204-7.209 11.37-8.689 12.981 -0.275 0.303-0.447 0.599-0.377 0.671 0.072 0.07 0.361-0.106 0.639-0.406 1.5-1.622 7.795-8.805 8.785-13.162 0.076-0.334 0.129-0.679 0.16-1.031 0.209-0.334 1.379-2.661 2.201-5.549 1.758-6.17-1.178-9.364-1.381-10.392 0.504-0.039 0.871 0.149 1.123 0.369 0.305 0.269 0.518 0.553 0.609 0.513 0.094-0.041 0.029-0.385-0.254-0.678 -0.387-0.399-1.055-0.792-2.068-0.463 -2.451 0.794-5.359 3.876-6.568 6.322 -1.049 2.126-2.656 6.05-2.941 8.115 -0.074 0.552 0.049 1.331 0.18 2.157 0.145 0.906 0.293 1.843 0.152 2.4C155.924 99.947 155.051 102.503 154.205 103.536zM160.295 84.409c0.652-1.029 2.406-2.083 3.313-2.87 0.521 0.939 3.836 6.843 1.516 13.684C164.928 86.051 163.408 89.804 160.295 84.409zM152.652 106.486c0.271-0.794 1.064-1.768 1.836-2.713 0.869-1.065 1.77-3.653 2.01-4.594 0.16-0.632 0.006-1.608-0.145-2.553 -0.121-0.761-0.248-1.55-0.18-2.045 0.074-0.539 0.244-1.212 0.471-1.946 0.734 0.537 4.887 3.405 1.025 9.163 -0.201 0.134-0.398 0.251-0.578 0.328 -0.822 0.354-1.146 0.908-1.461 1.443 -0.346 0.592-0.705 2.692-1.777 3.147C153.135 107.022 152.768 106.645 152.652 106.486z" fill="#c7633d" stroke-width="none" opacity="1" stroke="none"/>
            </g>
          </g>
          <g id="svga-group-faceshape-wrap" transform="matrix(1,0,0,1,0,0)">
            <g id="svga-group-faceshape-single">
              <path id="SvgjsPath6592" d="M100.002 0.867C66.384 0.92 39.082 28.536 39.134 62.56c0.009 5.403 0.704 10.643 2.002 15.634h0.001c0.012 0.054 8.341 20.48 10.463 33.205 2.38 14.276 10.462 30.232 16.302 35.786 6.052 5.756 20.281 14.682 32.099 14.682 11.267 0 26.046-8.926 32.099-14.682 5.84-5.554 13.922-21.51 16.302-35.786 2.122-12.725 10.452-33.151 10.463-33.205h0.002c1.298-4.992 1.994-10.231 2.002-15.634C160.923 28.536 133.62 0.92 100.002 0.867z" fill="#f5af95" stroke-width="none" opacity="1" stroke="none"/>
              <path id="SvgjsPath6593" d="M136.901 13.53c12.866 11.318 21.063 28.416 21.036 47.539 -0.009 5.403-0.671 10.642-1.906 15.634h-0.001c-0.011 0.054-7.939 20.48-9.959 33.205 -2.267 14.277-9.959 30.233-15.517 35.786 -5.761 5.757-19.828 14.683-30.552 14.683 -11.249 0-24.792-8.926-30.552-14.683 -5.558-5.553-13.25-21.509-15.516-35.786 -2.02-12.724-9.948-33.15-9.959-33.205h-0.001c-1.236-4.992-1.898-10.231-1.906-15.634 -0.028-19.122 8.168-36.218 21.033-47.537C48.519 24.809 39.104 42.574 39.134 62.56c0.009 5.403 0.704 10.643 2.002 15.634h0.001c0.012 0.054 8.341 20.48 10.463 33.205 2.38 14.276 10.462 30.232 16.302 35.786 6.052 5.756 20.281 14.682 32.099 14.682 11.267 0 26.046-8.926 32.099-14.682 5.84-5.554 13.922-21.51 16.302-35.786 2.122-12.725 10.452-33.151 10.463-33.205h0.002c1.298-4.992 1.994-10.231 2.002-15.634C160.901 42.573 151.485 24.806 136.901 13.53z" fill="#eda184" stroke-width="none" opacity="1" stroke="none"/>
              <path id="SvgjsPath6594" d="M100.002 0.867C66.384 0.92 39.082 28.536 39.134 62.56c0.009 5.403 0.704 10.643 2.002 15.634h0.001c0.012 0.054 8.341 20.48 10.463 33.205 2.38 14.276 10.462 30.232 16.302 35.786 6.052 5.756 20.281 14.682 32.099 14.682 11.267 0 26.046-8.926 32.099-14.682 5.84-5.554 13.922-21.51 16.302-35.786 2.122-12.725 10.452-33.151 10.463-33.205h0.002c1.298-4.992 1.994-10.231 2.002-15.634C160.923 28.536 133.62 0.92 100.002 0.867z" fill="none" stroke="#c7633d" stroke-width="1.5" opacity="1"/>
            </g>
          </g>
          <g id="svga-group-mouth-single-move" transform="matrix(1,0,0,1,0,0)">
            <g id="svga-group-mouth-single" transform="matrix(1,0,0,1,0,0)">
              <path id="SvgjsPath6641" d="M99.983 143.169c-3.24 0-4.753-3.102-4.753-3.102l9.279-0.067C104.509 140 102.832 143.169 99.983 143.169z" fill="url(#SvgjsLinearGradient6642)" opacity="1"/>
              <path id="SvgjsPath6645" d="M99.869 130.999c-8.472 0-12.247 2.608-15.517 6h31.035C112.672 133.527 108.709 130.999 99.869 130.999z" fill="#ffffff" stroke-width="none" opacity="1"/>
              <path id="SvgjsPath6646" d="M99.869 130.999c-8.472 0-12.247 2.608-15.517 6h31.035C112.672 133.527 108.709 130.999 99.869 130.999z" fill="none" stroke="#c7633d" stroke-width="0.75" opacity="1"/>
            </g>
          </g>
          <g id="svga-group-eyes-left-move" transform="matrix(1,0,0,1,0,0)">
            <g id="svga-group-eyes-left" transform="matrix(1,0,0,1,0,0)">
              <g id="svga-group-eyesback-left">
                <path id="SvgjsPath6494" d="M83.071 89.125c-3.293-0.784-4.969 1.059-9.809 1.166 -8.057 0.177-9.938-0.618-11.199-2.638 -0.523-0.837-1.023-1.928-1.264-2.601l-0.1-4.149c1.328-3.949 19.541-4.352 25.9 1.784 0.287 0.666 0.433 1.287 0.465 1.867 -0.19 0.958-0.512 1.878-0.947 2.749C85.411 88.113 84.355 88.729 83.071 89.125z" fill="url(#SvgjsRadialGradient6495)" opacity="1"/>
              </g>
              <g id="svga-group-eyesiriswrapper-left" transform="matrix(1,0,0,1,0.25,0.25)">
                <g id="svga-group-eyesiriscontrol-left" transform="matrix(1,0,0,1,0,0)">
                  <g id="svga-group-eyesiris-left" transform="matrix(1,0,0,1,0,0)">
                    <path id="SvgjsPath6552" d="M81.235 86.646c-1.087 5.321-5.202 8.456-9.201 6.994 -3.996-1.46-6.356-6.964-5.269-12.286 1.086-5.324 5.211-8.458 9.207-6.996C79.965 75.818 82.323 81.322 81.235 86.646z" fill="#b0b9d9" stroke="#576aab" stroke-width="0.5" opacity="1"/>
                    <path id="SvgjsPath6553" d="M80.068 86.771c-1.06 4.085-4.26 6.469-7.374 5.332 -2.875-1.053-4.689-4.732-4.454-8.62 1.068-0.112 2.233-0.146 3.444-0.066 -0.012 0.056-0.033 0.104-0.045 0.161 -0.381 1.875 0.509 3.841 1.991 4.384 1.487 0.542 3.001-0.545 3.385-2.419 0.047-0.245 0.073-0.49 0.081-0.732C78.112 85.304 79.109 85.942 80.068 86.771z" fill="#d4d8e8" stroke-width="none" opacity="1" stroke="none"/>
                    <path id="SvgjsPath6554" d="M75.015 81.018c-1.501-0.574-3.035 0.569-3.422 2.564 -0.389 1.986 0.515 4.063 2.017 4.638 1.505 0.575 3.039-0.569 3.426-2.555C77.427 83.669 76.52 81.591 75.015 81.018zM75.344 88.071c-0.625 0.258-1.271-0.085-1.443-0.771 -0.166-0.685 0.205-1.444 0.833-1.698 0.629-0.259 1.273 0.086 1.447 0.767C76.35 87.05 75.978 87.812 75.344 88.071z" fill="#000000" stroke-width="none" opacity="0.9"/>
                    <path id="SvgjsPath6555" d="M70.014 89.265c-0.463 0.37-1.152 0.04-1.548-0.744 -0.396-0.777-0.335-1.708 0.129-2.079 0.458-0.364 1.156-0.034 1.549 0.744C70.532 87.964 70.477 88.896 70.014 89.265z" fill="#ffffff" stroke-width="none" opacity="0.6"/>
                    <path id="SvgjsPath6556" d="M79.888 83.568c-1.058 0.843-2.647 0.083-3.547-1.701 -0.9-1.786-0.764-3.92 0.293-4.762 1.056-0.849 2.646-0.087 3.542 1.699C81.074 80.589 80.945 82.721 79.888 83.568z" fill="#ffffff" stroke-width="none" opacity="0.9"/>
                  </g>
                </g>
              </g>
              <g id="svga-group-eyesfront-left">
                <path id="SvgjsPath6519" d="M53.729 84.098c-0.382 3.304 9.854 22.004 20.071 22.004s19.5-5.292 19.5-22.003c0-17.789-9.283-22.001-19.5-22.001S55.626 67.704 53.729 84.098zM60.8 85.053l-0.1-4.149c1.328-3.949 19.541-4.352 25.9 1.784 1.396 3.231-0.409 5.477-3.529 6.438 -3.293-0.784-4.969 1.059-9.809 1.166 -8.057 0.177-9.938-0.618-11.199-2.638C61.54 86.816 61.04 85.726 60.8 85.053z" fill="#f5af95" stroke-width="none" opacity="1" stroke="none"/>
                <path id="SvgjsPath6520" d="M59.698 82.412c0.023 7.534 7.646 13.604 17.038 13.566 9.389-0.043 16.985-6.179 16.961-13.713 -0.023-7.533-7.647-13.605-17.04-13.566C67.265 68.743 59.673 74.878 59.698 82.412zM60.8 85.053l-0.1-4.149c1.328-3.949 19.541-4.352 25.9 1.784 1.396 3.231-0.409 5.477-3.529 6.438 -3.293-0.784-4.969 1.059-9.809 1.166 -8.057 0.177-9.938-0.618-11.199-2.638C61.54 86.816 61.04 85.726 60.8 85.053z" fill="url(#SvgjsRadialGradient6521)" opacity="1"/>
                <path id="SvgjsPath6525" d="M62.063 87.654c-0.523-0.837-1.023-1.928-1.264-2.601l-0.1-4.149c1.328-3.949 19.541-4.352 25.9 1.784 1.396 3.231-0.409 5.477-3.529 6.438 -3.293-0.784-4.969 1.059-9.809 1.166C65.206 90.469 63.324 89.673 62.063 87.654z" fill="url(#SvgjsRadialGradient6526)" opacity="1"/>
                <path id="SvgjsPath6529" d="M89.465 81.193c-9.617-5.761-16.701-6.128-28.117-5.394C70.877 74.298 81.852 75.387 89.465 81.193z" fill="#c7633d" stroke-width="none" opacity="1" stroke="none"/>
                <path id="SvgjsPath6530" d="M88.23 85.283c-3.24-8.315-25.943-8.364-27.431-4.181v3.895c-1.021-1.539-1.047-1.633-1.483-3.404l-2.195 0.746c0 0 2.746-3.873 5.299-4.381C84.606 73.539 88.04 83.949 88.23 85.283zM84.743 89.42c-4.625-1.98-5.94 0.378-11.563 0.495 -8.004 0.168-9.567-0.766-11.125-2.476 0.813 2.091 1.375 3.085 10.875 3.027C78.306 90.433 81.243 88.212 84.743 89.42z" fill="#092e0c" stroke-width="none" opacity="1" stroke="none"/>
              </g>
            </g>
          </g>
          <g id="svga-group-eyes-right-move" transform="matrix(1,0,0,1,0,0)">
            <g id="svga-group-eyes-right" transform="matrix(1,0,0,1,0,0)">
              <g id="svga-group-eyesback-right">
                <path id="SvgjsPath6502" d="M116.529 89.125c3.293-0.784 4.969 1.059 9.809 1.166 8.057 0.177 9.938-0.618 11.199-2.638 0.523-0.837 1.023-1.928 1.264-2.601l0.1-4.149c-1.328-3.949-19.541-4.352-25.9 1.784 -0.287 0.666-0.433 1.287-0.465 1.867 0.19 0.958 0.512 1.878 0.947 2.749C114.189 88.113 115.245 88.729 116.529 89.125z" fill="url(#SvgjsRadialGradient6503)" opacity="1"/>
              </g>
              <g id="svga-group-eyesiriswrapper-right" transform="matrix(1,0,0,1,-0.25,0.25)">
                <g id="svga-group-eyesiriscontrol-right" transform="matrix(1,0,0,1,0,0)">
                  <g id="svga-group-eyesiris-right" transform="matrix(1,0,0,1,0,0)">
                    <path id="SvgjsPath6557" d="M133.234 86.646c-1.088 5.321-5.203 8.456-9.202 6.992 -3.994-1.458-6.356-6.963-5.267-12.284 1.087-5.324 5.21-8.458 9.204-6.994C131.966 75.818 134.324 81.323 133.234 86.646z" fill="#b0b9d9" stroke="#576aab" stroke-width="0.5" opacity="1"/>
                    <path id="SvgjsPath6558" d="M132.069 86.771c-1.062 4.085-4.261 6.468-7.375 5.33 -2.875-1.052-4.69-4.73-4.454-8.618 1.067-0.111 2.235-0.146 3.445-0.066 -0.011 0.055-0.035 0.103-0.046 0.161 -0.381 1.875 0.508 3.84 1.99 4.383 1.489 0.542 3.001-0.547 3.385-2.42 0.049-0.244 0.073-0.49 0.083-0.732C130.11 85.305 131.108 85.943 132.069 86.771z" fill="#d4d8e8" stroke-width="none" opacity="1" stroke="none"/>
                    <path id="SvgjsPath6559" d="M127.017 81.018c-1.504-0.573-3.036 0.569-3.425 2.564 -0.387 1.987 0.515 4.063 2.02 4.637 1.504 0.575 3.035-0.57 3.426-2.555C129.427 83.669 128.52 81.591 127.017 81.018zM127.343 88.071c-0.623 0.258-1.271-0.085-1.44-0.771 -0.168-0.684 0.204-1.445 0.833-1.697 0.629-0.26 1.272 0.085 1.445 0.766C128.351 87.049 127.978 87.811 127.343 88.071z" fill="#000000" stroke-width="none" opacity="0.9"/>
                    <path id="SvgjsPath6560" d="M122.014 89.265c-0.461 0.368-1.15 0.039-1.547-0.745 -0.396-0.776-0.335-1.706 0.128-2.079 0.459-0.364 1.155-0.033 1.547 0.746C122.533 87.964 122.479 88.895 122.014 89.265z" fill="#ffffff" stroke-width="none" opacity="0.6"/>
                    <path id="SvgjsPath6561" d="M131.888 83.568c-1.06 0.844-2.646 0.083-3.548-1.701 -0.897-1.786-0.766-3.919 0.293-4.761 1.056-0.85 2.646-0.088 3.54 1.698C133.074 80.591 132.945 82.722 131.888 83.568z" fill="#ffffff" stroke-width="none" opacity="0.9"/>
                  </g>
                </g>
              </g>
              <g id="svga-group-eyesfront-right">
                <path id="SvgjsPath6540" d="M125.801 62.098c-10.217 0-19.5 4.212-19.5 22.001 0 16.711 9.283 22.003 19.5 22.003s19.891-18.032 20.07-22.004C146.617 67.611 136.018 62.098 125.801 62.098zM137.537 87.654c-1.261 2.02-3.143 2.815-11.199 2.638 -4.84-0.107-6.516-1.95-9.809-1.166 -3.12-0.961-4.925-3.207-3.529-6.438 6.359-6.136 24.572-5.733 25.9-1.784l-0.1 4.149C138.561 85.726 138.061 86.816 137.537 87.654z" fill="#f5af95" stroke-width="none" opacity="1" stroke="none"/>
                <path id="SvgjsPath6541" d="M122.943 68.699c-9.393-0.04-17.016 6.033-17.039 13.566 -0.025 7.535 7.572 13.67 16.961 13.713 9.391 0.037 17.014-6.033 17.037-13.566C139.928 74.878 132.336 68.743 122.943 68.699zM137.537 87.654c-1.261 2.02-3.143 2.815-11.199 2.638 -4.84-0.107-6.516-1.95-9.809-1.166 -3.12-0.961-4.925-3.207-3.529-6.438 6.359-6.136 24.572-5.733 25.9-1.784l-0.1 4.149C138.561 85.726 138.061 86.816 137.537 87.654z" fill="url(#SvgjsRadialGradient6542)" opacity="1"/>
                <path id="SvgjsPath6546" d="M137.537 87.654c0.523-0.837 1.023-1.928 1.264-2.601l0.1-4.149c-1.328-3.949-19.541-4.352-25.9 1.784 -1.396 3.231 0.409 5.477 3.529 6.438 3.293-0.784 4.969 1.059 9.809 1.166C134.395 90.469 136.276 89.673 137.537 87.654z" fill="url(#SvgjsRadialGradient6547)" opacity="1"/>
                <path id="SvgjsPath6550" d="M110.136 81.193c9.617-5.761 16.701-6.128 28.117-5.394C128.724 74.298 117.749 75.387 110.136 81.193z" fill="#c7633d" stroke-width="none" opacity="1" stroke="none"/>
                <path id="SvgjsPath6551" d="M137.181 77.957c2.553 0.508 5.299 4.381 5.299 4.381l-2.195-0.746c-0.437 1.771-0.463 1.865-1.483 3.404v-3.895c-1.487-4.183-24.19-4.134-27.431 4.181C111.561 83.949 114.994 73.539 137.181 77.957zM126.67 90.467c9.5 0.058 10.063-0.937 10.875-3.027 -1.558 1.71-3.121 2.644-11.125 2.476 -5.622-0.117-6.938-2.476-11.563-0.495C118.357 88.212 121.295 90.433 126.67 90.467z" fill="#092e0c" stroke-width="none" opacity="1" stroke="none"/>
              </g>
            </g>
          </g>
          <g id="svga-group-facehighlight-single">
            <path id="SvgjsPath6304" d="M141 113.974c0.035 22.622-18.292 40.994-40.938 41.025 -22.642 0.037-41.028-18.273-41.063-40.9 -0.035-22.62 18.292-41.064 40.937-41.1C122.579 72.964 140.967 91.349 141 113.974z" fill="url(#SvgjsRadialGradient6305)" opacity="1"/>
            <path id="SvgjsPath6308" d="M137.5 53.999c0 20.711-16.789 37.5-37.499 37.5 -20.711 0-37.501-16.789-37.501-37.5s16.79-37.5 37.501-37.5C120.711 16.499 137.5 33.288 137.5 53.999z" fill="url(#SvgjsRadialGradient6309)" opacity="1"/>
          </g>
          <g id="svga-group-eyebrows-left-move" transform="matrix(1,0,0,1,0,0)">
            <g id="svga-group-eyebrows-left-rotate" transform="matrix(1,0,0,1,0,0)">
              <g id="svga-group-eyebrows-left" transform="matrix(1,0,0,1,0,0)">
                <path id="SvgjsPath6562" d="M55.992 72.441c14.723-3.028 32.888 2.77 33.336-0.649 0.164-1.252-0.892-1.729-1.755-1.795C72.692 68.733 60.5 68.555 55.992 72.441z" fill="#b79675" stroke-width="none" opacity="1" stroke="none"/>
              </g>
            </g>
          </g>
          <g id="svga-group-eyebrows-right-move" transform="matrix(1,0,0,1,0,0)">
            <g id="svga-group-eyebrows-right-rotate" transform="matrix(1,0,0,1,0,0)">
              <g id="svga-group-eyebrows-right" transform="matrix(1,0,0,1,0,0)">
                <path id="SvgjsPath6563" d="M144.008 72.441c-14.724-3.028-32.888 2.77-33.336-0.649 -0.164-1.252 0.892-1.729 1.755-1.795C127.308 68.733 139.5 68.555 144.008 72.441z" fill="#b79675" stroke-width="none" opacity="1" stroke="none"/>
              </g>
            </g>
          </g>
          <g id="svga-group-nose-single-move" transform="matrix(1,0,0,1,0,0)">
            <g id="svga-group-nose-single" transform="matrix(1,0,0,1,0,0)">
              <path id="SvgjsPath6573" d="M100.729 120.838c-0.354 0.161-1.185 0.161-1.448-0.103 0 0-6.296-2.153-5.498-4.215 1.264-3.262 12.727-0.761 12.717 0C106.475 118.462 100.729 120.838 100.729 120.838z" fill="#e69375" stroke-width="none" opacity="1" stroke="none"/>
              <path id="SvgjsPath6574" d="M92.215 113.609c0 0 5.448-18.624 6.008-22.61 1.063 6.47-1.503 20.873-1.774 23.812 -0.329 3.569 3.455 5.688 3.455 5.688 0.293 0.371-0.061 0.602-0.516 0.456l-6.631-2.559C91.186 117.061 91.186 115.79 92.215 113.609zM103.176 116.911c0.915 0.207 1.106 0.576 1.035 0.957 -0.069 0.385-0.462 0.911-1.288 0.43 -0.907-0.526-2.619-0.767-2.619-0.767S102.261 116.701 103.176 116.911z" fill="#c7633d" stroke-width="none" opacity="1" stroke="none"/>
            </g>
          </g>
          <g id="svga-group-beardwrap" transform="matrix(1,0,0,1,0,0)">
            <g id="svga-group-beard-single-move" transform="matrix(1,0,0,1,0,0)">
              <g id="svga-group-beard-single" transform="matrix(1,0,0,1,0,0)">
                <path id="SvgjsPath6322" d="M100,18.13L100,18.13L100,18.13L100,18.13z" fill="#2a232b" stroke-width="none" opacity="1"/>
              </g>
            </g>
          </g>
          <g id="svga-group-mustache-single-move" transform="matrix(1,0,0,1,0,0)">
            <g id="svga-group-mustache-single" transform="matrix(1,0,0,1,0,0)">
              <path id="SvgjsPath6320" d="M100,18.13L100,18.13L100,18.13L100,18.13z" fill="#2a232b" stroke-width="none" opacity="1"/>
            </g>
          </g>
          <g id="svga-group-hair-front" transform="matrix(1,0,0,1,0,0)">
            <path id="SvgjsPath6609" d="M49.325 111.556c-5.418-3.127-9.142-6.627-12.893-15.151 -0.509-1.289-1.893-5.586-1.893-6.583 -2.19-1.805-4.608-7.14-5.665-9.781 -3.002-10.296-2.617-22.5-0.507-28.338l-0.355-0.177c-2.585 3.959-3.283 7.628-3.899 11.174 -2.751-9.066-1.237-19.367 5.766-28.261 -3.219 0.806-4.477 1.441-7.395 0.896 5.609-2.923 22.364-15.071 26.957-23.31 -3.952 1.013-8.211 3.096-11.467 5.241C42.093 4.296 58.83-6.401 72.393-5.223c-2.447-2.174-4.562-4.95-6.305-7.631 3.691 1.212 10.025 3.686 16.204 5.204 21.252 4.455 15.286 2.485 34.942-4.586 -0.811 2.912-0.804 3.07-2.543 7.203 14.207-5.614 27.89 0.23 32.18 8.219h0.009c0.062 0.115 0.122 0.232 0.182 0.348 -1.924-0.647-3.58-0.815-5.581-0.929 3.554 6.121 5.933 6.694 17.512 10.142 1.198 0.376 3.149 0.87 4.78 1.156 -2.419 1.728-4.111 2.16-7.047 2.539 4.662 1.984 7.377 5.559 9.431 10.264 2.974 7.095 3.489 12.801 2.96 19.332 -1.288-1.974-3.025-4.896-4.785-7.3l-0.343 0.202c4.382 9.461 2.86 17.286 19.494 28.646 -1.435 0.321-3.059 0.489-4.729 0.489l0 0c-2.914 0-5.43-0.476-7.888-1.295 0.702 8.681 0.171 12.925-0.7 16.66 -2.029 7.642-6.055 13.108-13.631 14.948 -4.42 5.776-8.943 8.17-12.081 8.709 2.207-3.648 7.364-13.608 8.248-17.532l-0.418-0.743c-9.509-2.35-16.209-9.562-17.565-19.881 -1.947 2.924-3.769 5.106-9.482 9.489 -0.465-11.558-6.145-26.409-13.25-35.719 -0.038 3.226 0.066 3.476 0.888 7.833h0.007c1.052 5.11 4.22 11.59 5.277 14.718 -3.106-1.771-5.685-2.961-9.079-8.315 -1.651-2.597-3.648-6.999-4.548-10.02l-0.39 0.033c-0.232 1.911-0.205 3.113-0.191 3.758 0 2.133 2.814 12.875 4.655 15.999 -6.57-3.309-9.514-8.744-11.7-14.128l-0.385 0.063c-0.212 3.309 0.151 10.703 1.586 16.32 -5.281-1.591-8.449-3.893-11.229-8.137 -1.839-3.446-1.922-4.927-2.316-8.32 -5.93 7.875-15.644 14.488-22.28 16.559 -0.031 0.009-0.094 0.027-0.169 0.048 0.9-1.781 1.845-3.528 2.76-5.222 2.511-4.645 3.927-7.333 5.656-11.639C54.489 63.345 51.333 80.329 55.478 99.135c-2.798-1.794-3.247-2.156-5.58-4.629 0.542 3.657 0.365 9.122-1.793 14.192l-0.033 0.078 0.033 0.078C49.309 111.692 48.909 110.896 49.325 111.556z" fill="#b79675" stroke-width="none" opacity="1"/>
            <path id="SvgjsPath6610" d="M125.204 77.964c-0.578-11.19-5.923-25.294-12.679-34.51C126.567 47.285 130.275 69.622 125.204 77.964zM106.011 36.392c-3.612 7.222-0.428 21.701 12.146 28.871C112.525 58.574 107.619 51.859 106.011 36.392zM108.453 66.433c-7.192-8.037-10.356-19.174-10.347-29.233 -3.515 6.254-2.14 23.155 10.499 29.518C108.556 66.635 108.504 66.526 108.453 66.433zM89 37c-4.366 7.103-9.458 26.381 9.106 31.973C87.048 59.856 87 49.904 89 37zM62.11 69.123c0.075-0.021 0.138-0.04 0.169-0.048 6.428-2.005 16.639-9.568 22.606-17.115 0.386-2.524 0.36-4.479 0.876-6.959C81.137 53.507 67.663 65.263 62.11 69.123zM52.691 89.147C45.784 78.324 51.501 57.719 54 55.575 49.975 58.052 41.291 80.894 52.691 89.147zM163.003 71.547c-0.902 15.205-9.329 25.748-18.371 35.513C154.984 105.083 166.035 88.224 163.003 71.547zM124.746 13.008C139.146 20.948 142.804 24.918 148 43 148 29.963 140.027 11.987 124.746 13.008zM109.744 10c-3.342 13.6 2.781 23 12.857 27.2C115.994 30.985 109.445 19.687 109.744 10zM35.291 56.683C42.033 57.062 52.027 53.314 54 45 49.325 51.209 45.258 54.686 35.291 56.683zM118.932 6.5c14.625-5.633 24.125-4.452 28.129-2.966C143.588 1.305 129.869-2.515 118.932 6.5zM38.819 16.035c10.126-6.212 14.655-5.279 20.253-5.606C51.421 7.273 45.744 9.378 38.819 16.035zM138.423 9.041c10.748 6.188 12.979 9.687 25.349 4.862C157 16.162 148 13.815 138.423 9.041zM86.739 6.456C92.978 6.459 96.974 8.788 100 11.063 98.35 8.073 91.713 3.969 86.739 6.456zM143.806 47.319c-1.848 11.267 5.017 16.082 14.445 17.591C152.279 63.099 145.654 56.831 143.806 47.319zM60.555 44.103c8.802-4.429 20.361-14.742 20.361-24.204C76.744 28.11 70.447 37 60.555 44.103zM183.241 67.417C171.046 68.508 164.456 58.388 157 50c2.801 7.468 8.217 12.322 14.619 17.002 2.223 0.672 4.515 1.073 7.134 1.073 1.67 0 3.294-0.168 4.729-0.489C183.398 67.529 183.323 67.474 183.241 67.417zM37.509 67.144c-3.62 12.01-6.057 30.855 11.816 44.412C39.134 100 35.743 81.271 37.509 67.144zM84.497 11.687C72.32 11.938 62.5 13 56.397 28.11 69.522 15.608 75.298 14.736 84.497 11.687zM24.119 57.719c1.73-6.653 6.276-11.247 13.078-13.775C28.606 44.103 25.479 48.186 24.119 57.719zM137.83 59.037c-6.883 10.962 0.74 24.952 14.349 29.395C138.508 74.348 138.111 70.642 137.83 59.037zM168.885 45.242C166.06 33 160.582 26.235 152.279 30.94 160.87 28.11 162.762 37.2 168.885 45.242zM131.446 71.73c10.059-10.14 6.667-25.225-1.631-31.637C136.373 53.445 134.794 60.709 131.446 71.73z" fill="#a8815a" stroke-width="none" opacity="1"/>
            <path id="SvgjsPath6611" d="M110.203 28.735c-7.752-5.34-11.439-9.634-17-16.667C98.507 16.871 105.104 23.542 110.203 28.735zM123.869 23.402c12.675 2.771 10.384 1.424 18.667 9.333C136.584 24.215 134.941 23.956 123.869 23.402zM127.869 33.402c7.079 3.301 11.655 15.926 13 23.333C140.952 47.935 136.387 35.737 127.869 33.402zM140.203 60.735c-0.438 8.567 3.08 11.935 7.333 21.667C145.451 73.278 141.402 70.29 140.203 60.735zM158.869 68.069c-0.707 8.421 0.23 14.627-3.666 21.333C160.468 83.167 159.616 76.161 158.869 68.069zM167.869 67.735c2.15 5.972-0.532 17.421-3.666 22.667C169.216 84.525 171.429 74.01 167.869 67.735zM152.869 33.735c11.648 2.03 4.693 18.159 19.334 27.333C159.416 48.888 165.243 33.55 152.869 33.735zM146.536 19.402c10.708 1.315 15.663 5.39 19.667 14C163.707 23.215 156.576 18.773 146.536 19.402zM115.203 41.069c9.562 6.386 13.174 17.608 13.333 29C130.82 58.701 126.871 45.731 115.203 41.069zM114.869-1.265c13.246-1.465 13.697-1.931 22.334 0.333C131.115-4.134 126.459-5.081 114.869-1.265zM74.536-7.265c9.174 6.781 29.321 12.629 37.667-1C103.296 1.777 86.568-1.323 74.536-7.265zM91.869 4.402c5.054-0.75 7.943 0.543 13.334 7.667C102.484 5.991 98.11 2.087 91.869 4.402zM82.536 8.402c-8.516-0.987-16.124-0.718-19.667 8.333C67.811 9.291 72.223 9.411 82.536 8.402zM47.869 8.069c4.683-4.046 14.198-10.146 22.333-9C62.43-3.799 52.913 1.43 47.869 8.069zM34.869 29.735c8.239-2.621 16.719-6.773 20.667-14.333C50.845 21.033 43.314 24.832 34.869 29.735zM49.869 29.069c-1.195 12.697-8.067 16.114-14 25.667C45.636 44.918 51.179 40.519 49.869 29.069zM68.536 47.069c-12.292 1.269-17.363 18.449-16.667 30.667C53.818 66.438 57.941 50.561 68.536 47.069zM75.203 39.735c-1.015 7.647-1.94 11.476-5.333 21C74.771 52.952 75.721 46.942 75.203 39.735zM96.536 35.735c-2.42 8.248-4.131 16.801-0.667 24.667C94.356 53.021 95.625 47.431 96.536 35.735zM87.869 15.402c-2.639 10.946-4.018 15.103-9 22.333C85.645 31.291 87.549 25.039 87.869 15.402zM105.203 33.735c-4.181 6.509-4.464 12.145-2.667 19.667C102.38 45.491 102.472 40.92 105.203 33.735zM110.869 36.402c-2.494 6.409-2.027 11.348 0.667 16.667C110.088 47.593 109.679 44.197 110.869 36.402zM48.869 56.735c-5.414 5.987-4.846 14.654-4 22.667C45.896 70.017 45.069 63.265 48.869 56.735zM40.203 64.069c-2.677 7.568-3.156 17.894 1.333 25C38.938 81.959 39.361 71.135 40.203 64.069zM32.869 48.069c-4.311 9.962-5.28 17.968-0.667 30.333C30.584 67.67 30.145 61.234 32.869 48.069zM26.203 48.069C37.259 30.471 44.045 36.17 48.536 27.402 41.92 35.084 33 29.641 26.203 48.069zM72.203 19.402c0.119 6.162-2.69 10.826-5 17.667C70.522 31.503 73.658 25.68 72.203 19.402zM139.869 4.402c2.816 5.948 9.814 9.055 16 9C150.963 12.386 143.511 9.186 139.869 4.402zM145.536 46.735c-0.258 5.394 3.563 10.916 8 13.667C150.647 57.794 146.327 51.645 145.536 46.735z" fill="#c6ac93" stroke-width="none" opacity="1"/>
            <path id="SvgjsPath6612" d="M183.969 67.675c-6.263-4.256-7.33-5.468-10.979-9.56 0 0-0.13-0.15-0.36-0.41 -6.695-9.373-4.181-9.611-8.46-18.85 1.892 2.585 3.736 5.738 5.101 7.78 0.21-3.013 1.227-10.089-2.931-20.01 -1.825-4.18-4.68-8.3-8.859-10.08 4.107-0.531 5.81-2.099 6.81-2.76 -1.729-0.267-3.954-0.827-5.24-1.23 -11.193-3.341-13.854-3.955-17.21-9.73 2.593 0.148 4.093 0.503 5.62 1.06 -0.14-0.29-0.3-0.6-0.46-0.9h-0.01c-1.685-3.134-5.694-6.731-10.811-8.71 -6.66-2.164-13.447-2.699-21.119 0.33 1.653-3.92 1.639-4.2 2.47-7.16 -20.085 7.173-13.869 9.179-35.19 4.71 -6.461-1.587-13.197-4.26-16.72-5.37 1.142 1.815 3.804 5.62 6.19 7.74 -12.222-1.064-30.117 9.186-34.19 23.22 3.924-2.671 8.58-4.681 11.42-5.41 -4.303 7.714-21.63 20.432-27.16 23.08 3.367 0.755 4.777 0.036 7.48-0.64 -5.514 7-8.194 16.316-5.92 26.15 0 0.01 0 0.01 0 0.01 0.251 1.066 0.398 1.582 0.73 2.61 0.655-3.762 1.25-7.683 4.01-11.91 -1.983 5.486-2.645 17.666 0.51 28.48 1.14 2.849 3.531 8.031 5.65 9.8 0 0.398 0.873 3.943 1.91 6.57 3.745 8.508 7.459 12.167 13.64 15.62 -1.071-1.842-0.152 0.086-1.6-3.33 1.533-3.602 2.02-6.65 2.02-10.25 0.024-1.064-0.082-3.162-0.12-3.42 2.12 2.249 2.849 2.704 5.59 4.46 -6.552-28.9 6.73-41.52 14.314-46.761 -2.402 5.989-5.563 11.027-8.364 16.631 0.16-0.041 0.52-0.145 0.6-0.17 0 0 0 0 0.01 0 7.426-2.316 17.112-9.638 22.08-16.23 0.347 2.986 0.478 4.515 2.29 7.91 2.991 4.564 6.373 6.777 11.68 8.32 -1.555-5.824-1.87-13.481-1.67-16.6 2.399 5.909 5.43 11.094 12.06 14.34h0.01c0.14 0.07 0.29 0.14 0.42 0.21 -1.721-1.734-5.06-14.067-5.06-16.5 -0.016-0.705-0.036-1.87 0.189-3.73 0.945 3.177 2.972 7.555 4.57 10.07 3.576 5.639 6.229 6.686 9.6 8.64 -1.11-3.542-3.387-7.564-5.149-14.01 -0.221-0.8-0.311-1.34-0.32-1.34 -0.69-3.673-0.889-4.392-0.86-7.05 6.238 8.171 12.493 23.175 12.87 35.53 3.443-2.632 6.896-5.363 9.54-9.33 1.357 10.283 8.577 17.26 17.561 19.5 0.109 0.2 0.229 0.4 0.34 0.6 -0.824 3.688-6.054 13.94-8.43 17.76 3.147-0.36 7.957-2.755 12.59-8.79 7.616-1.846 11.667-7.385 13.71-15.08 0.768-3.291 1.446-7.654 0.729-16.42C175.681 68.596 180.602 68.525 183.969 67.675zM50.089 93.835c-0.188-2.277-0.54-4.608-1.04-6.9 0.877 1 1.603 1.796 3.63 3.4 0.161 2.242 0.458 4.618 0.96 6.97C52.639 96.433 51.013 95.237 50.089 93.835zM150.459 80.585c1.277 2.101 2.995 3.706 2.311 7.61C152.291 87.195 151.248 84.205 150.459 80.585zM170.52 66.825c-0.455 12.426-1.084 26.441-13.381 31.09 7.956-11.178 5.978-16.145 6.301-22.76 -0.814 4.577-0.103 1.329-0.99 8.41 -1.297 6.64-8.454 19.527-16.7 22.81 0.611-0.858 1.893-2.938 2.71-4.229 4.354-7.071 5.899-11.333 6.04-16.21 -0.02-0.34-0.06-0.54-0.06-0.54 -0.336-2.668-2.538-5.358-4.44-7.26 -0.239-1.495-1.114-7.706-1.52-14.28 -0.269 3.7-0.338 8.969 0.199 13l0.011 0.01c0.862 5.889 2.244 10.208 3.029 11.28 -1.551-0.623-1.77-0.781-2.77-1.32 -8.722-4.82-11.62-9.872-13.46-18.88 1.596-2.724 1.738-4.376 2.22-6.48 0-0.01 0-0.01 0-0.02 0.514-1.567-0.56-9.591-0.56-10.61 0-0.12 0.02-0.2 0.029-0.22 -0.085 0.087-0.096 0.808-0.1 0.93 -0.229 7.18 0.566 9.475-2.78 16.01 -0.279 0.45-0.52 0.96-0.85 1.42 -2.167 2.786-2.007 2.823-7.78 8.24 0.679-11.247-5.389-26.989-13.479-34.75 0.11-3.74-0.079-4.97-0.681-5.97 0.706 1.733 0.238 3.75 0 5.96 -0.573 4.723 0.177 11.666 5.37 21.61 -6.189-4.771-10.123-12.717-12.12-20.04 0.563-3.521 0.906-4.625 1.38-8.68 -1.36 5.964-3.1 9.308-3.1 15.4 0.134 3.435 2.431 11.041 4.84 15.03 -4.119-2.958-8.768-9.078-10.95-16.89 0.597-7.936 1.488-12.376 2.14-16.61 -3.518 11.411-3.571 15.709-3.85 20.82 -0.02 1.28 0.01 2.57 0.01 3.53 0.01 0.48 0.01 0.88 0.02 1.17 0.03 0.28 0.04 0.44 0.04 0.44 0.545 5.442 1.496 8.688 2.04 10.04 -4.951-2.176-9.931-6.937-11.1-12.87 -1.616-7.53 2.373-17.62 2.68-18.62 -0.853 1.706-4.395 7.961-4.51 14.97 -2.026 2.257-4.629 4.75-5.63 5.64 -5.605 5.083-10.98 8.705-15.96 11.19 0.13-0.2 0.27-0.42 0.41-0.64l-0.01 0.03c6.144-9.044 9.965-16.674 10.18-27.55 -0.58 4.238-1.601 7.9-2.866 11.256 -10.46 5.48-18.753 18.57-17.924 37.234 -0.15-0.17-0.31-0.33-0.47-0.5 -7.064-6.96-4.696-14.295-2.67-22.49 2.321-9.233 3.71-9.51 4.71-10.51 -3.46 2.069-5.596 8.819-6.82 12.85 -2.729 8.793-1.479 13.522 0.28 16.65 1.366 9.164 2.228 14.714 0.21 22.79 -1.216-2.735-2.888-9.783-3.12-13.34 -0.673-5.966-0.763-7.961-1.25-15.26 -0.494 7.405-1.295 20.041 3.62 29.87 -10.349-9.856-14.864-24.953-9.27-42.86 -3.354 7.285-4.874 13.868-3.84 21.76 -6.401-11.16-7.021-26.98-4.14-38.48 2.612-3.149 5.684-4.568 7.68-5.57 -6.141 2.238-7.106 3.404-9.64 6.19 -1.762 2.461-2.938 4.705-3.84 8.12 -0.536-8.169 1.545-16.16 7.4-23.97 5.653-1.508 10.804-4.672 15.4-8.12 -6.775 3.736-10.945 5.852-17.88 7.81 -0.886 0.262-3.403 1.002-4.34 1.12 7.457-3.866 21.268-13.739 25.05-22.81 3.97-1.186 6.349-1.333 9.04-1.66 -7.141 0-12.19 0.606-19.89 5.53 4.617-9.06 19.642-20.74 33.96-20.74 2.847 2.213 6.718 3.623 10.19 5.6 -2.169-1.853-7.413-4.64-9.28-6.11 0-0.01 0-0.01-0.01 0 -1.191-0.95-1.73-0.982-5.89-6.27 9.406 4.473 12.744 5.31 16.57 6.2 18.733 4.262 17.219 0.998 31.89-5.82 -0.354 1.012-2.504 6.973-3.28 7.73 -2.076 3.669-4.594 6.552-8.51 8.51 4.48-1.485 7.663-4.723 9.87-9.01 0.65-0.325 4.727-1.365 6.37-1.54 8.218-0.886 11.799-0.144 17.64 2.5 1 0.555 4.702 2.439 7.261 5.41 -6.718-2.101-17.275 0.695-23.921 2.92 1.711-0.326 10.455-2.156 15.62-2.54 1.891-0.16 3.761-0.08 3.761-0.09 0.09 0 0.18 0.01 0.27 0.01 2.622 5.451 4.2 7.416 17.53 10.66 1.372 0.318 2.838 0.494 3.83 0.62 -2.315 1.026-3.594 1.278-6.32 1.51 -10.533 0.214-12.152-4.801-18.6-6.76 6.802 3.031 6.574 7.8 18.97 7.8 3.643 1.355 6.84 6.796 8.439 10.49 2.288 5.485 3.317 11.582 3.57 17.52 -1.612-2.944-7.708-12.381-11.07-13.57 -0.761-0.297-1.4-0.304-2.14-0.23 2.067 0 3.499 1.242 4.71 2.93h0.01c2.547 3.711 3.938 9.101 5.25 13.6 0 0 0.061 0.2 0.16 0.54 2.532 8.814 8.096 15.083 15.771 19.33 -16.134 0.714-17.671-9.528-25.601-18.32C160.412 55.189 162.752 63.528 170.52 66.825zM157.229 63.575c-2.577-6.236-1.016-3.791-4.221-10.15 3.521 4.422 3.78 7.85 5.73 11.77 -7.248-1.936-14.8-9.364-15-17.58 -0.04-0.78-0.061-1.26-0.061-1.26C145.099 54.866 149.964 59.968 157.229 63.575zM148.549 46.706c-1.18-3.591-8.053-17.584-14.279-19.61 -1.982-0.853-4.928-1.363-7.24-1.91 8.267 0.722 12.23 0.498 18.76 12.86 0.59 1.14 1.18 2.43 1.75 3.76 -1.69-13.577-6.567-20.283-12.76-25.08 -4.292-2.865-7.618-3.228-10.29-3.68 2.949 0.081 6.466 0.083 11 2.59 4.633 2.963 7.719 6.044 10.82 13.87 0.22 0.52 0.369 0.97 0.46 1.29 0.1 0.31 0.159 0.49 0.159 0.49C148.623 36.71 148.718 40.973 148.549 46.706zM120.699 36.115c-6.086-6.25-11.09-14.396-10.61-23.07 0.697 9.229 7.345 18.064 13.82 25.01 -12.517-1.666-21.022-10.063-28.2-19.91C106.407 29.942 113.476 33.58 120.699 36.115zM87.299 5.875c-0.01 0.01-0.01 0.02-0.02 0.03 3.177-1.248 9.33-0.122 12.08 4.32 -2.801-3.547-8.862-5.14-12.62-3.77 1.205-3.917 6.946-4.981 10.93-4.42 -2.532 0-6.33 0.606-8.54 2.03C88.107 4.701 87.909 5.095 87.299 5.875zM58.909 45.555c5.625-8.431 4.559-4.042 8.75-15.7 0.465-1.342 1.924-5.56 2.9-7.75 -0.02 0.1-0.14 0.53-0.32 1.19 -3.206 12.822-4.09 14.826-8.8 20.32 8.872-5.32 14.373-10.241 19-19.54C77.348 34.462 68.579 41.758 58.909 45.555zM55.719 28.795c0 0 0 0 0-0.01 0-12.914 7.494-26.534 19.37-25.05 -13.802 0-18.42 19.599-18.42 23.9 6.221-7.458 17.108-13.956 28.27-15.99 -9.501 2.929-21.763 9.859-29.23 17.88C55.719 29.285 55.719 29.035 55.719 28.795zM36.039 56.555c6.452 0.207 12.076-2.905 16.42-7.61 -3.988 6.273-12.402 9.888-18.82 7.76 9.583-3.201 16.521-12.126 18.58-22.2 -0.775 9.675-5.943 17.08-14.12 21.24C36.345 56.557 37.039 56.126 36.039 56.555z" fill="#895c2f" stroke-width="none" opacity="1"/>
          </g>
          <g id="svga-group-glasses-single-move" transform="matrix(1,0,0,1,0,0)">
            <g id="svga-group-glasses-single" transform="matrix(1,0,0,1,0,0)">
              <path id="SvgjsPath6564" d="M91.69 89.23c-3.71 7.46-14.12 8.15-17.78 8.15H61.79c-5.75 0-10.86-7.99-10.86-14.29v-6.16c0-0.23 0.11-0.46 0.29-0.7L91.69 89.23zM110.37 76.65c-2.07 1.43-3.39 3.35-3.39 5.92v0.5c0 2.44 0.5 4.47 1.34 6.15 3.71 7.46 14.12 8.15 17.78 8.15h12.12c4.09 0 7.85-4.05 9.68-8.66L110.37 76.65z" fill="#ffffff" stroke-width="none" opacity="0.2"/>
              <path id="SvgjsPath6565" d="M91.69 89.23L51.21 76.22c0.99-1.32 4.4-2.7 6.15-2.91 2.18-0.26 6.63-0.69 11.94-0.69 8.86 0 23.72 1.29 23.72 9.96v0.5C93.02 85.52 92.52 87.55 91.69 89.23zM149.07 83.08v-6.16c0-0.23-0.11-0.46-0.29-0.7 -0.99-1.32-4.4-2.7-6.15-2.91 -2.18-0.26-6.63-0.69-11.94-0.69 -6.23 0-15.41 0.64-20.33 4.03l37.53 12.06C148.64 86.85 149.07 84.9 149.07 83.08z" fill="#ffffff" stroke-width="none" opacity="0.4"/>
              <path id="SvgjsPath6566" d="M149.73 78.68v-1.76c0-2.1-4.9-3.99-7.01-4.25 -9.42-1.12-31.52-2.02-35.7 6.76 -2.78-0.92-5.88-1.28-7.02-1.29 -1.14 0.01-4.24 0.37-7.02 1.29 -4.17-8.77-26.27-7.88-35.7-6.76 -2.11 0.25-7.01 2.14-7.01 4.25v1.76H45.5v2.36h4.77v2.04c0 6.3 5.15 14.94 11.51 14.94h12.12c8.33 0 19.76-3.13 19.76-14.94v-0.5c0-0.76-0.1-1.46-0.29-2.12 3.46-1.07 5.55-1.29 6.62-1.31 1.07 0.01 3.16 0.24 6.62 1.31 -0.19 0.66-0.29 1.36-0.29 2.12v0.5c0 11.81 11.44 14.94 19.76 14.94h12.12c6.36 0 11.51-8.64 11.51-14.94v-2.04h4.77v-2.36H149.73zM92.86 83.08c0 13.11-14.5 14.13-18.95 14.13H61.79c-5.66 0-10.7-7.9-10.7-14.13v-6.16c0-1.31 4.09-3.18 6.29-3.44 2.17-0.26 6.62-0.69 11.92-0.69 8.8 0 23.55 1.27 23.55 9.79V83.08zM148.91 83.08c0 6.23-5.04 14.13-10.7 14.13h-12.12c-4.45 0-18.95-1.02-18.95-14.13v-0.5c0-8.52 14.76-9.79 23.55-9.79 5.31 0 9.75 0.43 11.92 0.69 2.2 0.26 6.3 2.13 6.3 3.44V83.08z" fill="#97cf10" stroke-width="none" opacity="1" stroke="none"/>
            </g>
          </g>
        </g>
      </g>
    </g>
    <rect id="SvgjsRect6289" width="200" height="15" x="0" y="185" fill="#ecf0f1" opacity="0.5" style="display: none;"/>
    <text id="SvgjsText6290" font-family="Roboto, Helvetica, Arial, sans-serif" font-size="10px" text-anchor="start" font-weight="400"
          fill="#333333" x="38.730010986328125" y="182.42838287353516" style="display: none;">
      <tspan id="SvgjsTspan6291" dy="13" x="38.730010986328125">Created on svgAvatars.com</tspan>
    </text>
  </g>
</svg>
